<?xml version="1.0" encoding="utf-8" standalone="no"?>
<!DOCTYPE svg PUBLIC "-//W3C//DTD SVG 1.1//EN"
  "http://www.w3.org/Graphics/SVG/1.1/DTD/svg11.dtd">
<svg xmlns:xlink="http://www.w3.org/1999/xlink" width="1080pt" height="1728pt" viewBox="0 0 1080 1728" xmlns="http://www.w3.org/2000/svg" version="1.1">
 <metadata>
  <rdf:RDF xmlns:dc="http://purl.org/dc/elements/1.1/" xmlns:cc="http://creativecommons.org/ns#" xmlns:rdf="http://www.w3.org/1999/02/22-rdf-syntax-ns#">
   <cc:Work>
    <dc:type rdf:resource="http://purl.org/dc/dcmitype/StillImage"/>
    <dc:date>2022-10-02T17:07:17.167014</dc:date>
    <dc:format>image/svg+xml</dc:format>
    <dc:creator>
     <cc:Agent>
      <dc:title>Matplotlib v3.5.2, https://matplotlib.org/</dc:title>
     </cc:Agent>
    </dc:creator>
   </cc:Work>
  </rdf:RDF>
 </metadata>
 <defs>
  <style type="text/css">*{stroke-linejoin: round; stroke-linecap: butt}</style>
 </defs>
 <g id="figure_1">
  <g id="patch_1">
   <path d="M 0 1728 
L 1080 1728 
L 1080 0 
L 0 0 
z
" style="fill: #ffffff"/>
  </g>
  <g id="axes_1">
   <g id="patch_2">
    <path d="M 135 496.612174 
L 972 496.612174 
L 972 207.36 
L 135 207.36 
z
" style="fill: #ffffff"/>
   </g>
   <g id="matplotlib.axis_1">
    <g id="xtick_1">
     <g id="line2d_1">
      <defs>
       <path id="mbb617c7f46" d="M 0 0 
L 0 3.5 
" style="stroke: #000000; stroke-width: 0.8"/>
      </defs>
      <g>
       <use xlink:href="#mbb617c7f46" x="173.045455" y="496.612174" style="stroke: #000000; stroke-width: 0.8"/>
      </g>
     </g>
     <g id="text_1">
      <!-- 0.0 -->
      <g transform="translate(165.093892 511.210611)scale(0.1 -0.1)">
       <defs>
        <path id="DejaVuSans-30" d="M 2034 4250 
Q 1547 4250 1301 3770 
Q 1056 3291 1056 2328 
Q 1056 1369 1301 889 
Q 1547 409 2034 409 
Q 2525 409 2770 889 
Q 3016 1369 3016 2328 
Q 3016 3291 2770 3770 
Q 2525 4250 2034 4250 
z
M 2034 4750 
Q 2819 4750 3233 4129 
Q 3647 3509 3647 2328 
Q 3647 1150 3233 529 
Q 2819 -91 2034 -91 
Q 1250 -91 836 529 
Q 422 1150 422 2328 
Q 422 3509 836 4129 
Q 1250 4750 2034 4750 
z
" transform="scale(0.015625)"/>
        <path id="DejaVuSans-2e" d="M 684 794 
L 1344 794 
L 1344 0 
L 684 0 
L 684 794 
z
" transform="scale(0.015625)"/>
       </defs>
       <use xlink:href="#DejaVuSans-30"/>
       <use xlink:href="#DejaVuSans-2e" x="63.623047"/>
       <use xlink:href="#DejaVuSans-30" x="95.410156"/>
      </g>
     </g>
    </g>
    <g id="xtick_2">
     <g id="line2d_2">
      <g>
       <use xlink:href="#mbb617c7f46" x="325.227273" y="496.612174" style="stroke: #000000; stroke-width: 0.8"/>
      </g>
     </g>
     <g id="text_2">
      <!-- 0.2 -->
      <g transform="translate(317.27571 511.210611)scale(0.1 -0.1)">
       <defs>
        <path id="DejaVuSans-32" d="M 1228 531 
L 3431 531 
L 3431 0 
L 469 0 
L 469 531 
Q 828 903 1448 1529 
Q 2069 2156 2228 2338 
Q 2531 2678 2651 2914 
Q 2772 3150 2772 3378 
Q 2772 3750 2511 3984 
Q 2250 4219 1831 4219 
Q 1534 4219 1204 4116 
Q 875 4013 500 3803 
L 500 4441 
Q 881 4594 1212 4672 
Q 1544 4750 1819 4750 
Q 2544 4750 2975 4387 
Q 3406 4025 3406 3419 
Q 3406 3131 3298 2873 
Q 3191 2616 2906 2266 
Q 2828 2175 2409 1742 
Q 1991 1309 1228 531 
z
" transform="scale(0.015625)"/>
       </defs>
       <use xlink:href="#DejaVuSans-30"/>
       <use xlink:href="#DejaVuSans-2e" x="63.623047"/>
       <use xlink:href="#DejaVuSans-32" x="95.410156"/>
      </g>
     </g>
    </g>
    <g id="xtick_3">
     <g id="line2d_3">
      <g>
       <use xlink:href="#mbb617c7f46" x="477.409091" y="496.612174" style="stroke: #000000; stroke-width: 0.8"/>
      </g>
     </g>
     <g id="text_3">
      <!-- 0.4 -->
      <g transform="translate(469.457528 511.210611)scale(0.1 -0.1)">
       <defs>
        <path id="DejaVuSans-34" d="M 2419 4116 
L 825 1625 
L 2419 1625 
L 2419 4116 
z
M 2253 4666 
L 3047 4666 
L 3047 1625 
L 3713 1625 
L 3713 1100 
L 3047 1100 
L 3047 0 
L 2419 0 
L 2419 1100 
L 313 1100 
L 313 1709 
L 2253 4666 
z
" transform="scale(0.015625)"/>
       </defs>
       <use xlink:href="#DejaVuSans-30"/>
       <use xlink:href="#DejaVuSans-2e" x="63.623047"/>
       <use xlink:href="#DejaVuSans-34" x="95.410156"/>
      </g>
     </g>
    </g>
    <g id="xtick_4">
     <g id="line2d_4">
      <g>
       <use xlink:href="#mbb617c7f46" x="629.590909" y="496.612174" style="stroke: #000000; stroke-width: 0.8"/>
      </g>
     </g>
     <g id="text_4">
      <!-- 0.6 -->
      <g transform="translate(621.639347 511.210611)scale(0.1 -0.1)">
       <defs>
        <path id="DejaVuSans-36" d="M 2113 2584 
Q 1688 2584 1439 2293 
Q 1191 2003 1191 1497 
Q 1191 994 1439 701 
Q 1688 409 2113 409 
Q 2538 409 2786 701 
Q 3034 994 3034 1497 
Q 3034 2003 2786 2293 
Q 2538 2584 2113 2584 
z
M 3366 4563 
L 3366 3988 
Q 3128 4100 2886 4159 
Q 2644 4219 2406 4219 
Q 1781 4219 1451 3797 
Q 1122 3375 1075 2522 
Q 1259 2794 1537 2939 
Q 1816 3084 2150 3084 
Q 2853 3084 3261 2657 
Q 3669 2231 3669 1497 
Q 3669 778 3244 343 
Q 2819 -91 2113 -91 
Q 1303 -91 875 529 
Q 447 1150 447 2328 
Q 447 3434 972 4092 
Q 1497 4750 2381 4750 
Q 2619 4750 2861 4703 
Q 3103 4656 3366 4563 
z
" transform="scale(0.015625)"/>
       </defs>
       <use xlink:href="#DejaVuSans-30"/>
       <use xlink:href="#DejaVuSans-2e" x="63.623047"/>
       <use xlink:href="#DejaVuSans-36" x="95.410156"/>
      </g>
     </g>
    </g>
    <g id="xtick_5">
     <g id="line2d_5">
      <g>
       <use xlink:href="#mbb617c7f46" x="781.772727" y="496.612174" style="stroke: #000000; stroke-width: 0.8"/>
      </g>
     </g>
     <g id="text_5">
      <!-- 0.8 -->
      <g transform="translate(773.821165 511.210611)scale(0.1 -0.1)">
       <defs>
        <path id="DejaVuSans-38" d="M 2034 2216 
Q 1584 2216 1326 1975 
Q 1069 1734 1069 1313 
Q 1069 891 1326 650 
Q 1584 409 2034 409 
Q 2484 409 2743 651 
Q 3003 894 3003 1313 
Q 3003 1734 2745 1975 
Q 2488 2216 2034 2216 
z
M 1403 2484 
Q 997 2584 770 2862 
Q 544 3141 544 3541 
Q 544 4100 942 4425 
Q 1341 4750 2034 4750 
Q 2731 4750 3128 4425 
Q 3525 4100 3525 3541 
Q 3525 3141 3298 2862 
Q 3072 2584 2669 2484 
Q 3125 2378 3379 2068 
Q 3634 1759 3634 1313 
Q 3634 634 3220 271 
Q 2806 -91 2034 -91 
Q 1263 -91 848 271 
Q 434 634 434 1313 
Q 434 1759 690 2068 
Q 947 2378 1403 2484 
z
M 1172 3481 
Q 1172 3119 1398 2916 
Q 1625 2713 2034 2713 
Q 2441 2713 2670 2916 
Q 2900 3119 2900 3481 
Q 2900 3844 2670 4047 
Q 2441 4250 2034 4250 
Q 1625 4250 1398 4047 
Q 1172 3844 1172 3481 
z
" transform="scale(0.015625)"/>
       </defs>
       <use xlink:href="#DejaVuSans-30"/>
       <use xlink:href="#DejaVuSans-2e" x="63.623047"/>
       <use xlink:href="#DejaVuSans-38" x="95.410156"/>
      </g>
     </g>
    </g>
    <g id="xtick_6">
     <g id="line2d_6">
      <g>
       <use xlink:href="#mbb617c7f46" x="933.954545" y="496.612174" style="stroke: #000000; stroke-width: 0.8"/>
      </g>
     </g>
     <g id="text_6">
      <!-- 1.0 -->
      <g transform="translate(926.002983 511.210611)scale(0.1 -0.1)">
       <defs>
        <path id="DejaVuSans-31" d="M 794 531 
L 1825 531 
L 1825 4091 
L 703 3866 
L 703 4441 
L 1819 4666 
L 2450 4666 
L 2450 531 
L 3481 531 
L 3481 0 
L 794 0 
L 794 531 
z
" transform="scale(0.015625)"/>
       </defs>
       <use xlink:href="#DejaVuSans-31"/>
       <use xlink:href="#DejaVuSans-2e" x="63.623047"/>
       <use xlink:href="#DejaVuSans-30" x="95.410156"/>
      </g>
     </g>
    </g>
   </g>
   <g id="matplotlib.axis_2">
    <g id="ytick_1">
     <g id="line2d_7">
      <defs>
       <path id="m26dcdc3e9f" d="M 0 0 
L -3.5 0 
" style="stroke: #000000; stroke-width: 0.8"/>
      </defs>
      <g>
       <use xlink:href="#m26dcdc3e9f" x="135" y="469.103048" style="stroke: #000000; stroke-width: 0.8"/>
      </g>
     </g>
     <g id="text_7">
      <!-- 4 -->
      <g transform="translate(121.6375 472.902266)scale(0.1 -0.1)">
       <use xlink:href="#DejaVuSans-34"/>
      </g>
     </g>
    </g>
    <g id="ytick_2">
     <g id="line2d_8">
      <g>
       <use xlink:href="#m26dcdc3e9f" x="135" y="424.117072" style="stroke: #000000; stroke-width: 0.8"/>
      </g>
     </g>
     <g id="text_8">
      <!-- 6 -->
      <g transform="translate(121.6375 427.916291)scale(0.1 -0.1)">
       <use xlink:href="#DejaVuSans-36"/>
      </g>
     </g>
    </g>
    <g id="ytick_3">
     <g id="line2d_9">
      <g>
       <use xlink:href="#m26dcdc3e9f" x="135" y="379.131097" style="stroke: #000000; stroke-width: 0.8"/>
      </g>
     </g>
     <g id="text_9">
      <!-- 8 -->
      <g transform="translate(121.6375 382.930316)scale(0.1 -0.1)">
       <use xlink:href="#DejaVuSans-38"/>
      </g>
     </g>
    </g>
    <g id="ytick_4">
     <g id="line2d_10">
      <g>
       <use xlink:href="#m26dcdc3e9f" x="135" y="334.145121" style="stroke: #000000; stroke-width: 0.8"/>
      </g>
     </g>
     <g id="text_10">
      <!-- 10 -->
      <g transform="translate(115.275 337.94434)scale(0.1 -0.1)">
       <use xlink:href="#DejaVuSans-31"/>
       <use xlink:href="#DejaVuSans-30" x="63.623047"/>
      </g>
     </g>
    </g>
    <g id="ytick_5">
     <g id="line2d_11">
      <g>
       <use xlink:href="#m26dcdc3e9f" x="135" y="289.159146" style="stroke: #000000; stroke-width: 0.8"/>
      </g>
     </g>
     <g id="text_11">
      <!-- 12 -->
      <g transform="translate(115.275 292.958365)scale(0.1 -0.1)">
       <use xlink:href="#DejaVuSans-31"/>
       <use xlink:href="#DejaVuSans-32" x="63.623047"/>
      </g>
     </g>
    </g>
    <g id="ytick_6">
     <g id="line2d_12">
      <g>
       <use xlink:href="#m26dcdc3e9f" x="135" y="244.173171" style="stroke: #000000; stroke-width: 0.8"/>
      </g>
     </g>
     <g id="text_12">
      <!-- 14 -->
      <g transform="translate(115.275 247.97239)scale(0.1 -0.1)">
       <use xlink:href="#DejaVuSans-31"/>
       <use xlink:href="#DejaVuSans-34" x="63.623047"/>
      </g>
     </g>
    </g>
   </g>
   <g id="line2d_13">
    <path d="M 173.045455 469.103048 
L 181.054784 467.198926 
L 189.064874 465.274876 
L 197.074203 463.330897 
L 205.083532 461.367012 
L 213.093622 459.383198 
L 221.102951 457.379522 
L 229.11228 455.355986 
L 237.12237 453.312633 
L 245.131699 451.249486 
L 253.141028 449.16659 
L 261.150357 447.063991 
L 269.160447 444.941732 
L 277.169776 442.799905 
L 285.179105 440.638532 
L 293.189195 438.457701 
L 301.198525 436.257505 
L 309.207854 434.037964 
L 317.217944 431.799237 
L 325.227273 429.541369 
L 333.236602 427.264471 
L 341.246692 424.968657 
L 349.256021 422.654016 
L 357.26535 420.320683 
L 365.27544 417.968794 
L 373.284769 415.59846 
L 381.294098 413.20984 
L 389.304188 410.803045 
L 397.313517 408.378256 
L 405.322846 405.93563 
L 413.332175 403.475325 
L 421.342265 400.997542 
L 429.351595 398.502418 
L 437.360924 395.990176 
L 445.371014 393.461019 
L 453.380343 390.915128 
L 461.389672 388.352749 
L 469.399762 385.774063 
L 477.409091 383.17934 
L 485.41842 380.568804 
L 493.42851 377.942702 
L 501.437839 375.301283 
L 509.447168 372.644839 
L 517.457258 369.973617 
L 525.466587 367.287909 
L 533.475916 364.588031 
L 541.486006 361.874252 
L 549.495335 359.146887 
L 557.504665 356.406274 
L 565.513994 353.65275 
L 573.524084 350.886652 
L 581.533413 348.108318 
L 589.542742 345.318131 
L 597.552832 342.516427 
L 605.562161 339.703634 
L 613.57149 336.880111 
L 621.58158 334.046287 
L 629.590909 331.202566 
L 637.600238 328.349376 
L 645.610328 325.487143 
L 653.619657 322.616341 
L 661.628986 319.737418 
L 669.639076 316.850826 
L 677.648405 313.95708 
L 685.657735 311.056654 
L 693.667825 308.150066 
L 701.677154 305.237831 
L 709.686483 302.320468 
L 717.695812 299.398561 
L 725.705902 296.472629 
L 733.715231 293.543277 
L 741.72456 290.611046 
L 749.73465 287.676543 
L 757.743979 284.740399 
L 765.753308 281.803242 
L 773.763398 278.865658 
L 781.772727 275.928343 
L 789.782056 272.991951 
L 797.792146 270.057156 
L 805.801475 267.124633 
L 813.810805 264.195101 
L 821.820895 261.269303 
L 829.830224 258.347937 
L 837.839553 255.431743 
L 845.849643 252.521533 
L 853.858972 249.618048 
L 861.868301 246.722099 
L 869.87763 243.834494 
L 877.88772 240.956044 
L 885.897049 238.08758 
L 893.906378 235.229981 
L 901.916468 232.384124 
L 909.925797 229.550884 
L 917.935126 226.731141 
L 925.945216 223.925838 
L 933.954545 221.13592 
" clip-path="url(#p8c35534017)" style="fill: none; stroke: #1f77b4; stroke-width: 1.5; stroke-linecap: square"/>
   </g>
   <g id="line2d_14">
    <path d="M 173.045455 483.464348 
L 181.054784 471.913231 
L 189.064874 465.171746 
L 197.074203 463.229904 
L 205.083532 461.26811 
L 213.093622 459.286388 
L 221.102951 457.284737 
L 229.11228 455.26318 
L 237.12237 453.221761 
L 245.131699 451.160504 
L 253.141028 449.079475 
L 261.150357 446.97872 
L 269.160447 444.858261 
L 277.169776 442.718166 
L 285.179105 440.558524 
L 293.189195 438.379381 
L 301.198525 436.180826 
L 309.207854 433.962928 
L 317.217944 431.725775 
L 325.227273 429.469459 
L 333.236602 427.19409 
L 341.246692 424.899761 
L 349.256021 422.586582 
L 357.26535 420.254689 
L 365.27544 417.904217 
L 373.284769 415.535255 
L 381.294098 413.147984 
L 389.304188 410.742517 
L 397.313517 408.319032 
L 405.322846 405.877688 
L 413.332175 403.418643 
L 421.342265 400.942052 
L 429.351595 398.448142 
L 437.360924 395.937092 
L 445.371014 393.409083 
L 453.380343 390.864339 
L 461.389672 388.303062 
L 469.399762 385.725479 
L 477.409091 383.131812 
L 485.41842 380.522333 
L 493.42851 377.897266 
L 501.437839 375.25686 
L 509.447168 372.601405 
L 517.457258 369.93115 
L 525.466587 367.246409 
L 533.475916 364.547453 
L 541.486006 361.834597 
L 549.495335 359.108154 
L 557.504665 356.368441 
L 565.513994 353.615794 
L 573.524084 350.850528 
L 581.533413 348.073049 
L 589.542742 345.283671 
L 597.552832 342.4828 
L 605.562161 339.670794 
L 613.57149 336.848059 
L 621.58158 334.015022 
L 629.590909 331.172043 
L 637.600238 328.319595 
L 645.610328 325.458105 
L 653.619657 322.588022 
L 661.628986 319.709797 
L 669.639076 316.823901 
L 677.648405 313.930831 
L 685.657735 311.03108 
L 693.667825 308.125143 
L 701.677154 305.213561 
L 709.686483 302.29685 
L 717.695812 299.375574 
L 725.705902 296.450271 
L 733.715231 293.521504 
L 741.72456 290.58988 
L 749.73465 287.655985 
L 757.743979 284.720425 
L 765.753308 281.78383 
L 773.763398 278.846831 
L 781.772727 275.910057 
L 789.782056 272.974227 
L 797.792146 270.039949 
L 805.801475 267.107966 
L 813.810805 264.178974 
L 821.820895 261.253671 
L 829.830224 258.332821 
L 837.839553 255.417145 
L 845.849643 252.50743 
L 853.858972 249.60444 
L 861.868301 246.708963 
L 869.87763 243.82183 
L 877.88772 240.943853 
L 885.897049 238.075862 
L 893.906378 235.218735 
L 901.916468 232.373304 
L 909.925797 229.540515 
L 917.935126 226.721222 
L 925.945216 223.916368 
L 933.954545 220.507826 
" clip-path="url(#p8c35534017)" style="fill: none; stroke: #ff7f0e; stroke-width: 1.5; stroke-linecap: square"/>
   </g>
   <g id="patch_3">
    <path d="M 135 496.612174 
L 135 207.36 
" style="fill: none; stroke: #000000; stroke-width: 0.8; stroke-linejoin: miter; stroke-linecap: square"/>
   </g>
   <g id="patch_4">
    <path d="M 972 496.612174 
L 972 207.36 
" style="fill: none; stroke: #000000; stroke-width: 0.8; stroke-linejoin: miter; stroke-linecap: square"/>
   </g>
   <g id="patch_5">
    <path d="M 135 496.612174 
L 972 496.612174 
" style="fill: none; stroke: #000000; stroke-width: 0.8; stroke-linejoin: miter; stroke-linecap: square"/>
   </g>
   <g id="patch_6">
    <path d="M 135 207.36 
L 972 207.36 
" style="fill: none; stroke: #000000; stroke-width: 0.8; stroke-linejoin: miter; stroke-linecap: square"/>
   </g>
   <g id="legend_1">
    <g id="patch_7">
     <path d="M 142 244.71625 
L 220.675 244.71625 
Q 222.675 244.71625 222.675 242.71625 
L 222.675 214.36 
Q 222.675 212.36 220.675 212.36 
L 142 212.36 
Q 140 212.36 140 214.36 
L 140 242.71625 
Q 140 244.71625 142 244.71625 
z
" style="fill: #ffffff; opacity: 0.8; stroke: #cccccc; stroke-linejoin: miter"/>
    </g>
    <g id="line2d_15">
     <path d="M 144 220.458437 
L 154 220.458437 
L 164 220.458437 
" style="fill: none; stroke: #1f77b4; stroke-width: 1.5; stroke-linecap: square"/>
    </g>
    <g id="text_13">
     <!-- Дано -->
     <g transform="translate(172 223.958437)scale(0.1 -0.1)">
      <defs>
       <path id="DejaVuSans-414" d="M 1459 531 
L 3522 531 
L 3522 4134 
L 2006 4134 
L 2006 3472 
Q 2006 1913 1656 878 
Q 1584 666 1459 531 
z
M 538 531 
Q 956 728 1075 1103 
Q 1378 2066 1378 3784 
L 1378 4666 
L 4153 4666 
L 4153 531 
L 4684 531 
L 4684 -1003 
L 4153 -1003 
L 4153 0 
L 847 0 
L 847 -1003 
L 316 -1003 
L 316 531 
L 538 531 
z
" transform="scale(0.015625)"/>
       <path id="DejaVuSans-430" d="M 2194 1759 
Q 1497 1759 1228 1600 
Q 959 1441 959 1056 
Q 959 750 1161 570 
Q 1363 391 1709 391 
Q 2188 391 2477 730 
Q 2766 1069 2766 1631 
L 2766 1759 
L 2194 1759 
z
M 3341 1997 
L 3341 0 
L 2766 0 
L 2766 531 
Q 2569 213 2275 61 
Q 1981 -91 1556 -91 
Q 1019 -91 701 211 
Q 384 513 384 1019 
Q 384 1609 779 1909 
Q 1175 2209 1959 2209 
L 2766 2209 
L 2766 2266 
Q 2766 2663 2505 2880 
Q 2244 3097 1772 3097 
Q 1472 3097 1187 3025 
Q 903 2953 641 2809 
L 641 3341 
Q 956 3463 1253 3523 
Q 1550 3584 1831 3584 
Q 2591 3584 2966 3190 
Q 3341 2797 3341 1997 
z
" transform="scale(0.015625)"/>
       <path id="DejaVuSans-43d" d="M 581 3500 
L 1159 3500 
L 1159 2072 
L 3025 2072 
L 3025 3500 
L 3603 3500 
L 3603 0 
L 3025 0 
L 3025 1613 
L 1159 1613 
L 1159 0 
L 581 0 
L 581 3500 
z
" transform="scale(0.015625)"/>
       <path id="DejaVuSans-43e" d="M 1959 3097 
Q 1497 3097 1228 2736 
Q 959 2375 959 1747 
Q 959 1119 1226 758 
Q 1494 397 1959 397 
Q 2419 397 2687 759 
Q 2956 1122 2956 1747 
Q 2956 2369 2687 2733 
Q 2419 3097 1959 3097 
z
M 1959 3584 
Q 2709 3584 3137 3096 
Q 3566 2609 3566 1747 
Q 3566 888 3137 398 
Q 2709 -91 1959 -91 
Q 1206 -91 779 398 
Q 353 888 353 1747 
Q 353 2609 779 3096 
Q 1206 3584 1959 3584 
z
" transform="scale(0.015625)"/>
      </defs>
      <use xlink:href="#DejaVuSans-414"/>
      <use xlink:href="#DejaVuSans-430" x="78.125"/>
      <use xlink:href="#DejaVuSans-43d" x="139.404297"/>
      <use xlink:href="#DejaVuSans-43e" x="204.785156"/>
     </g>
    </g>
    <g id="line2d_16">
     <path d="M 144 235.136562 
L 154 235.136562 
L 164 235.136562 
" style="fill: none; stroke: #ff7f0e; stroke-width: 1.5; stroke-linecap: square"/>
    </g>
    <g id="text_14">
     <!-- Решение -->
     <g transform="translate(172 238.636562)scale(0.1 -0.1)">
      <defs>
       <path id="DejaVuSans-420" d="M 1259 4147 
L 1259 2394 
L 2053 2394 
Q 2494 2394 2734 2622 
Q 2975 2850 2975 3272 
Q 2975 3691 2734 3919 
Q 2494 4147 2053 4147 
L 1259 4147 
z
M 628 4666 
L 2053 4666 
Q 2838 4666 3239 4311 
Q 3641 3956 3641 3272 
Q 3641 2581 3239 2228 
Q 2838 1875 2053 1875 
L 1259 1875 
L 1259 0 
L 628 0 
L 628 4666 
z
" transform="scale(0.015625)"/>
       <path id="DejaVuSans-435" d="M 3597 1894 
L 3597 1613 
L 953 1613 
Q 991 1019 1311 708 
Q 1631 397 2203 397 
Q 2534 397 2845 478 
Q 3156 559 3463 722 
L 3463 178 
Q 3153 47 2828 -22 
Q 2503 -91 2169 -91 
Q 1331 -91 842 396 
Q 353 884 353 1716 
Q 353 2575 817 3079 
Q 1281 3584 2069 3584 
Q 2775 3584 3186 3129 
Q 3597 2675 3597 1894 
z
M 3022 2063 
Q 3016 2534 2758 2815 
Q 2500 3097 2075 3097 
Q 1594 3097 1305 2825 
Q 1016 2553 972 2059 
L 3022 2063 
z
" transform="scale(0.015625)"/>
       <path id="DejaVuSans-448" d="M 3216 459 
L 4697 459 
L 4697 3500 
L 5275 3500 
L 5275 0 
L 581 0 
L 581 3500 
L 1159 3500 
L 1159 459 
L 2638 459 
L 2638 3500 
L 3216 3500 
L 3216 459 
z
" transform="scale(0.015625)"/>
       <path id="DejaVuSans-438" d="M 3578 3500 
L 3578 0 
L 3006 0 
L 3006 2809 
L 1319 0 
L 581 0 
L 581 3500 
L 1153 3500 
L 1153 697 
L 2838 3500 
L 3578 3500 
z
" transform="scale(0.015625)"/>
      </defs>
      <use xlink:href="#DejaVuSans-420"/>
      <use xlink:href="#DejaVuSans-435" x="60.302734"/>
      <use xlink:href="#DejaVuSans-448" x="121.826172"/>
      <use xlink:href="#DejaVuSans-435" x="213.330078"/>
      <use xlink:href="#DejaVuSans-43d" x="274.853516"/>
      <use xlink:href="#DejaVuSans-438" x="340.234375"/>
      <use xlink:href="#DejaVuSans-435" x="405.224609"/>
     </g>
    </g>
   </g>
  </g>
  <g id="axes_2">
   <g id="patch_8">
    <path d="M 135 843.714783 
L 972 843.714783 
L 972 554.462609 
L 135 554.462609 
z
" style="fill: #ffffff"/>
   </g>
   <g id="matplotlib.axis_3">
    <g id="xtick_7">
     <g id="line2d_17">
      <g>
       <use xlink:href="#mbb617c7f46" x="173.045455" y="843.714783" style="stroke: #000000; stroke-width: 0.8"/>
      </g>
     </g>
     <g id="text_15">
      <!-- 0.0 -->
      <g transform="translate(165.093892 858.31322)scale(0.1 -0.1)">
       <use xlink:href="#DejaVuSans-30"/>
       <use xlink:href="#DejaVuSans-2e" x="63.623047"/>
       <use xlink:href="#DejaVuSans-30" x="95.410156"/>
      </g>
     </g>
    </g>
    <g id="xtick_8">
     <g id="line2d_18">
      <g>
       <use xlink:href="#mbb617c7f46" x="325.227273" y="843.714783" style="stroke: #000000; stroke-width: 0.8"/>
      </g>
     </g>
     <g id="text_16">
      <!-- 0.2 -->
      <g transform="translate(317.27571 858.31322)scale(0.1 -0.1)">
       <use xlink:href="#DejaVuSans-30"/>
       <use xlink:href="#DejaVuSans-2e" x="63.623047"/>
       <use xlink:href="#DejaVuSans-32" x="95.410156"/>
      </g>
     </g>
    </g>
    <g id="xtick_9">
     <g id="line2d_19">
      <g>
       <use xlink:href="#mbb617c7f46" x="477.409091" y="843.714783" style="stroke: #000000; stroke-width: 0.8"/>
      </g>
     </g>
     <g id="text_17">
      <!-- 0.4 -->
      <g transform="translate(469.457528 858.31322)scale(0.1 -0.1)">
       <use xlink:href="#DejaVuSans-30"/>
       <use xlink:href="#DejaVuSans-2e" x="63.623047"/>
       <use xlink:href="#DejaVuSans-34" x="95.410156"/>
      </g>
     </g>
    </g>
    <g id="xtick_10">
     <g id="line2d_20">
      <g>
       <use xlink:href="#mbb617c7f46" x="629.590909" y="843.714783" style="stroke: #000000; stroke-width: 0.8"/>
      </g>
     </g>
     <g id="text_18">
      <!-- 0.6 -->
      <g transform="translate(621.639347 858.31322)scale(0.1 -0.1)">
       <use xlink:href="#DejaVuSans-30"/>
       <use xlink:href="#DejaVuSans-2e" x="63.623047"/>
       <use xlink:href="#DejaVuSans-36" x="95.410156"/>
      </g>
     </g>
    </g>
    <g id="xtick_11">
     <g id="line2d_21">
      <g>
       <use xlink:href="#mbb617c7f46" x="781.772727" y="843.714783" style="stroke: #000000; stroke-width: 0.8"/>
      </g>
     </g>
     <g id="text_19">
      <!-- 0.8 -->
      <g transform="translate(773.821165 858.31322)scale(0.1 -0.1)">
       <use xlink:href="#DejaVuSans-30"/>
       <use xlink:href="#DejaVuSans-2e" x="63.623047"/>
       <use xlink:href="#DejaVuSans-38" x="95.410156"/>
      </g>
     </g>
    </g>
    <g id="xtick_12">
     <g id="line2d_22">
      <g>
       <use xlink:href="#mbb617c7f46" x="933.954545" y="843.714783" style="stroke: #000000; stroke-width: 0.8"/>
      </g>
     </g>
     <g id="text_20">
      <!-- 1.0 -->
      <g transform="translate(926.002983 858.31322)scale(0.1 -0.1)">
       <use xlink:href="#DejaVuSans-31"/>
       <use xlink:href="#DejaVuSans-2e" x="63.623047"/>
       <use xlink:href="#DejaVuSans-30" x="95.410156"/>
      </g>
     </g>
    </g>
   </g>
   <g id="matplotlib.axis_4">
    <g id="ytick_7">
     <g id="line2d_23">
      <g>
       <use xlink:href="#m26dcdc3e9f" x="135" y="831.219049" style="stroke: #000000; stroke-width: 0.8"/>
      </g>
     </g>
     <g id="text_21">
      <!-- −6 -->
      <g transform="translate(113.257812 835.018268)scale(0.1 -0.1)">
       <defs>
        <path id="DejaVuSans-2212" d="M 678 2272 
L 4684 2272 
L 4684 1741 
L 678 1741 
L 678 2272 
z
" transform="scale(0.015625)"/>
       </defs>
       <use xlink:href="#DejaVuSans-2212"/>
       <use xlink:href="#DejaVuSans-36" x="83.789062"/>
      </g>
     </g>
    </g>
    <g id="ytick_8">
     <g id="line2d_24">
      <g>
       <use xlink:href="#m26dcdc3e9f" x="135" y="793.560675" style="stroke: #000000; stroke-width: 0.8"/>
      </g>
     </g>
     <g id="text_22">
      <!-- −5 -->
      <g transform="translate(113.257812 797.359894)scale(0.1 -0.1)">
       <defs>
        <path id="DejaVuSans-35" d="M 691 4666 
L 3169 4666 
L 3169 4134 
L 1269 4134 
L 1269 2991 
Q 1406 3038 1543 3061 
Q 1681 3084 1819 3084 
Q 2600 3084 3056 2656 
Q 3513 2228 3513 1497 
Q 3513 744 3044 326 
Q 2575 -91 1722 -91 
Q 1428 -91 1123 -41 
Q 819 9 494 109 
L 494 744 
Q 775 591 1075 516 
Q 1375 441 1709 441 
Q 2250 441 2565 725 
Q 2881 1009 2881 1497 
Q 2881 1984 2565 2268 
Q 2250 2553 1709 2553 
Q 1456 2553 1204 2497 
Q 953 2441 691 2322 
L 691 4666 
z
" transform="scale(0.015625)"/>
       </defs>
       <use xlink:href="#DejaVuSans-2212"/>
       <use xlink:href="#DejaVuSans-35" x="83.789062"/>
      </g>
     </g>
    </g>
    <g id="ytick_9">
     <g id="line2d_25">
      <g>
       <use xlink:href="#m26dcdc3e9f" x="135" y="755.902302" style="stroke: #000000; stroke-width: 0.8"/>
      </g>
     </g>
     <g id="text_23">
      <!-- −4 -->
      <g transform="translate(113.257812 759.701521)scale(0.1 -0.1)">
       <use xlink:href="#DejaVuSans-2212"/>
       <use xlink:href="#DejaVuSans-34" x="83.789062"/>
      </g>
     </g>
    </g>
    <g id="ytick_10">
     <g id="line2d_26">
      <g>
       <use xlink:href="#m26dcdc3e9f" x="135" y="718.243929" style="stroke: #000000; stroke-width: 0.8"/>
      </g>
     </g>
     <g id="text_24">
      <!-- −3 -->
      <g transform="translate(113.257812 722.043147)scale(0.1 -0.1)">
       <defs>
        <path id="DejaVuSans-33" d="M 2597 2516 
Q 3050 2419 3304 2112 
Q 3559 1806 3559 1356 
Q 3559 666 3084 287 
Q 2609 -91 1734 -91 
Q 1441 -91 1130 -33 
Q 819 25 488 141 
L 488 750 
Q 750 597 1062 519 
Q 1375 441 1716 441 
Q 2309 441 2620 675 
Q 2931 909 2931 1356 
Q 2931 1769 2642 2001 
Q 2353 2234 1838 2234 
L 1294 2234 
L 1294 2753 
L 1863 2753 
Q 2328 2753 2575 2939 
Q 2822 3125 2822 3475 
Q 2822 3834 2567 4026 
Q 2313 4219 1838 4219 
Q 1578 4219 1281 4162 
Q 984 4106 628 3988 
L 628 4550 
Q 988 4650 1302 4700 
Q 1616 4750 1894 4750 
Q 2613 4750 3031 4423 
Q 3450 4097 3450 3541 
Q 3450 3153 3228 2886 
Q 3006 2619 2597 2516 
z
" transform="scale(0.015625)"/>
       </defs>
       <use xlink:href="#DejaVuSans-2212"/>
       <use xlink:href="#DejaVuSans-33" x="83.789062"/>
      </g>
     </g>
    </g>
    <g id="ytick_11">
     <g id="line2d_27">
      <g>
       <use xlink:href="#m26dcdc3e9f" x="135" y="680.585555" style="stroke: #000000; stroke-width: 0.8"/>
      </g>
     </g>
     <g id="text_25">
      <!-- −2 -->
      <g transform="translate(113.257812 684.384774)scale(0.1 -0.1)">
       <use xlink:href="#DejaVuSans-2212"/>
       <use xlink:href="#DejaVuSans-32" x="83.789062"/>
      </g>
     </g>
    </g>
    <g id="ytick_12">
     <g id="line2d_28">
      <g>
       <use xlink:href="#m26dcdc3e9f" x="135" y="642.927182" style="stroke: #000000; stroke-width: 0.8"/>
      </g>
     </g>
     <g id="text_26">
      <!-- −1 -->
      <g transform="translate(113.257812 646.7264)scale(0.1 -0.1)">
       <use xlink:href="#DejaVuSans-2212"/>
       <use xlink:href="#DejaVuSans-31" x="83.789062"/>
      </g>
     </g>
    </g>
    <g id="ytick_13">
     <g id="line2d_29">
      <g>
       <use xlink:href="#m26dcdc3e9f" x="135" y="605.268808" style="stroke: #000000; stroke-width: 0.8"/>
      </g>
     </g>
     <g id="text_27">
      <!-- 0 -->
      <g transform="translate(121.6375 609.068027)scale(0.1 -0.1)">
       <use xlink:href="#DejaVuSans-30"/>
      </g>
     </g>
    </g>
    <g id="ytick_14">
     <g id="line2d_30">
      <g>
       <use xlink:href="#m26dcdc3e9f" x="135" y="567.610435" style="stroke: #000000; stroke-width: 0.8"/>
      </g>
     </g>
     <g id="text_28">
      <!-- 1 -->
      <g transform="translate(121.6375 571.409654)scale(0.1 -0.1)">
       <use xlink:href="#DejaVuSans-31"/>
      </g>
     </g>
    </g>
   </g>
   <g id="line2d_31">
    <path d="M 173.045455 567.610435 
L 181.054784 575.674486 
L 189.064874 583.553672 
L 197.074203 591.251458 
L 205.083532 598.771308 
L 213.093622 606.116574 
L 221.102951 613.290531 
L 229.11228 620.296307 
L 237.12237 627.137139 
L 245.131699 633.816002 
L 253.141028 640.335947 
L 261.150357 646.699873 
L 269.160447 652.91068 
L 277.169776 658.971117 
L 285.179105 664.883972 
L 293.189195 670.651879 
L 301.198525 676.277475 
L 309.207854 681.763321 
L 317.217944 687.11194 
L 325.227273 692.325779 
L 333.236602 697.407174 
L 341.246692 702.358535 
L 349.256021 707.18212 
L 357.26535 711.880191 
L 365.27544 716.454892 
L 373.284769 720.908371 
L 381.294098 725.242775 
L 389.304188 729.460061 
L 397.313517 733.562263 
L 405.322846 737.551377 
L 413.332175 741.429248 
L 421.342265 745.197759 
L 429.351595 748.858755 
L 437.360924 752.413969 
L 445.371014 755.865209 
L 453.380343 759.21413 
L 461.389672 762.462428 
L 469.399762 765.611723 
L 477.409091 768.663557 
L 485.41842 771.619551 
L 493.42851 774.481174 
L 501.437839 777.24993 
L 509.447168 779.927252 
L 517.457258 782.514608 
L 525.466587 785.013317 
L 533.475916 787.424771 
L 541.486006 789.750288 
L 549.495335 791.99115 
L 557.504665 794.148636 
L 565.513994 796.223951 
L 573.524084 798.218338 
L 581.533413 800.132928 
L 589.542742 801.968924 
L 597.552832 803.727457 
L 605.562161 805.409544 
L 613.57149 807.016351 
L 621.58158 808.548859 
L 629.590909 810.008158 
L 637.600238 811.395229 
L 645.610328 812.711013 
L 653.619657 813.956526 
L 661.628986 815.13271 
L 669.639076 816.240393 
L 677.648405 817.280593 
L 685.657735 818.254099 
L 693.667825 819.161779 
L 701.677154 820.004498 
L 709.686483 820.783047 
L 717.695812 821.498255 
L 725.705902 822.150875 
L 733.715231 822.741735 
L 741.72456 823.271475 
L 749.73465 823.740962 
L 757.743979 824.150798 
L 765.753308 824.501737 
L 773.763398 824.794493 
L 781.772727 825.029707 
L 789.782056 825.208019 
L 797.792146 825.330108 
L 805.801475 825.396575 
L 813.810805 825.408098 
L 821.820895 825.365205 
L 829.830224 825.268574 
L 837.839553 825.118731 
L 845.849643 824.91628 
L 853.858972 824.661747 
L 861.868301 824.355735 
L 869.87763 823.998771 
L 877.88772 823.591345 
L 885.897049 823.133984 
L 893.906378 822.627253 
L 901.916468 822.071642 
L 909.925797 821.467601 
L 917.935126 820.815697 
L 925.945216 820.116306 
L 933.954545 819.369992 
" clip-path="url(#p791c44bc55)" style="fill: none; stroke: #1f77b4; stroke-width: 1.5; stroke-linecap: square"/>
   </g>
   <g id="line2d_32">
    <path d="M 173.045455 579.385719 
L 181.054784 587.279817 
L 189.064874 594.992629 
L 197.074203 602.527505 
L 205.083532 609.887834 
L 213.093622 617.07693 
L 221.102951 624.09792 
L 229.11228 630.953965 
L 237.12237 637.648156 
L 245.131699 644.183503 
L 253.141028 650.562869 
L 261.150357 656.789191 
L 269.160447 662.865219 
L 277.169776 668.793702 
L 285.179105 674.57735 
L 293.189195 680.218763 
L 301.198525 685.7205 
L 309.207854 691.085086 
L 317.217944 696.314968 
L 325.227273 701.412519 
L 333.236602 706.38011 
L 341.246692 711.220002 
L 349.256021 715.934454 
L 357.26535 720.525649 
L 365.27544 724.995736 
L 373.284769 729.346784 
L 381.294098 733.580828 
L 389.304188 737.699901 
L 397.313517 741.705961 
L 405.322846 745.600892 
L 413.332175 749.386575 
L 421.342265 753.064819 
L 429.351595 756.637393 
L 437.360924 760.106106 
L 445.371014 763.472577 
L 453.380343 766.738537 
L 461.389672 769.905606 
L 469.399762 772.975328 
L 477.409091 775.949285 
L 485.41842 778.829021 
L 493.42851 781.615967 
L 501.437839 784.311628 
L 509.447168 786.917362 
L 517.457258 789.434598 
L 525.466587 791.864693 
L 533.475916 794.208964 
L 541.486006 796.468693 
L 549.495335 798.645121 
L 557.504665 800.739529 
L 565.513994 802.753084 
L 573.524084 804.686993 
L 581.533413 806.542383 
L 589.542742 808.320385 
L 597.552832 810.02213 
L 605.562161 811.648632 
L 613.57149 813.201024 
L 621.58158 814.680244 
L 629.590909 816.08735 
L 637.600238 817.423318 
L 645.610328 818.689129 
L 653.619657 819.885648 
L 661.628986 821.013856 
L 669.639076 822.074617 
L 677.648405 823.068798 
L 685.657735 823.997265 
L 693.667825 824.860884 
L 701.677154 825.660447 
L 709.686483 826.396744 
L 717.695812 827.070565 
L 725.705902 827.682702 
L 733.715231 828.23387 
L 741.72456 828.724784 
L 749.73465 829.156199 
L 757.743979 829.528828 
L 765.753308 829.843313 
L 773.763398 830.100369 
L 781.772727 830.300599 
L 789.782056 830.444717 
L 797.792146 830.53329 
L 805.801475 830.566957 
L 813.810805 830.54632 
L 821.820895 830.47202 
L 829.830224 830.344546 
L 837.839553 830.164577 
L 845.849643 829.932564 
L 853.858972 829.649147 
L 861.868301 829.314816 
L 869.87763 828.930098 
L 877.88772 828.495558 
L 885.897049 828.011648 
L 893.906378 827.478895 
L 901.916468 826.897788 
L 909.925797 826.268818 
L 917.935126 825.592474 
L 925.945216 824.869169 
L 933.954545 824.09947 
" clip-path="url(#p791c44bc55)" style="fill: none; stroke: #ff7f0e; stroke-width: 1.5; stroke-linecap: square"/>
   </g>
   <g id="patch_9">
    <path d="M 135 843.714783 
L 135 554.462609 
" style="fill: none; stroke: #000000; stroke-width: 0.8; stroke-linejoin: miter; stroke-linecap: square"/>
   </g>
   <g id="patch_10">
    <path d="M 972 843.714783 
L 972 554.462609 
" style="fill: none; stroke: #000000; stroke-width: 0.8; stroke-linejoin: miter; stroke-linecap: square"/>
   </g>
   <g id="patch_11">
    <path d="M 135 843.714783 
L 972 843.714783 
" style="fill: none; stroke: #000000; stroke-width: 0.8; stroke-linejoin: miter; stroke-linecap: square"/>
   </g>
   <g id="patch_12">
    <path d="M 135 554.462609 
L 972 554.462609 
" style="fill: none; stroke: #000000; stroke-width: 0.8; stroke-linejoin: miter; stroke-linecap: square"/>
   </g>
   <g id="legend_2">
    <g id="patch_13">
     <path d="M 882.932812 591.818859 
L 965 591.818859 
Q 967 591.818859 967 589.818859 
L 967 561.462609 
Q 967 559.462609 965 559.462609 
L 882.932812 559.462609 
Q 880.932812 559.462609 880.932812 561.462609 
L 880.932812 589.818859 
Q 880.932812 591.818859 882.932812 591.818859 
z
" style="fill: #ffffff; opacity: 0.8; stroke: #cccccc; stroke-linejoin: miter"/>
    </g>
    <g id="line2d_33">
     <path d="M 884.932812 567.561046 
L 894.932812 567.561046 
L 904.932812 567.561046 
" style="fill: none; stroke: #1f77b4; stroke-width: 1.5; stroke-linecap: square"/>
    </g>
    <g id="text_29">
     <!-- Прогонка -->
     <g transform="translate(912.932812 571.061046)scale(0.1 -0.1)">
      <defs>
       <path id="DejaVuSans-41f" d="M 4184 4666 
L 4184 0 
L 3553 0 
L 3553 4134 
L 1259 4134 
L 1259 0 
L 628 0 
L 628 4666 
L 4184 4666 
z
" transform="scale(0.015625)"/>
       <path id="DejaVuSans-440" d="M 1159 525 
L 1159 -1331 
L 581 -1331 
L 581 3500 
L 1159 3500 
L 1159 2969 
Q 1341 3281 1617 3432 
Q 1894 3584 2278 3584 
Q 2916 3584 3314 3078 
Q 3713 2572 3713 1747 
Q 3713 922 3314 415 
Q 2916 -91 2278 -91 
Q 1894 -91 1617 61 
Q 1341 213 1159 525 
z
M 3116 1747 
Q 3116 2381 2855 2742 
Q 2594 3103 2138 3103 
Q 1681 3103 1420 2742 
Q 1159 2381 1159 1747 
Q 1159 1113 1420 752 
Q 1681 391 2138 391 
Q 2594 391 2855 752 
Q 3116 1113 3116 1747 
z
" transform="scale(0.015625)"/>
       <path id="DejaVuSans-433" d="M 581 0 
L 581 3500 
L 3050 3500 
L 3050 3041 
L 1159 3041 
L 1159 0 
L 581 0 
z
" transform="scale(0.015625)"/>
       <path id="DejaVuSans-43a" d="M 581 3500 
L 1153 3500 
L 1153 1856 
L 2775 3500 
L 3481 3500 
L 2144 2147 
L 3653 0 
L 3009 0 
L 1769 1766 
L 1153 1141 
L 1153 0 
L 581 0 
L 581 3500 
z
" transform="scale(0.015625)"/>
      </defs>
      <use xlink:href="#DejaVuSans-41f"/>
      <use xlink:href="#DejaVuSans-440" x="75.195312"/>
      <use xlink:href="#DejaVuSans-43e" x="138.671875"/>
      <use xlink:href="#DejaVuSans-433" x="199.853516"/>
      <use xlink:href="#DejaVuSans-43e" x="252.392578"/>
      <use xlink:href="#DejaVuSans-43d" x="313.574219"/>
      <use xlink:href="#DejaVuSans-43a" x="378.955078"/>
      <use xlink:href="#DejaVuSans-430" x="439.355469"/>
     </g>
    </g>
    <g id="line2d_34">
     <path d="M 884.932812 582.239171 
L 894.932812 582.239171 
L 904.932812 582.239171 
" style="fill: none; stroke: #ff7f0e; stroke-width: 1.5; stroke-linecap: square"/>
    </g>
    <g id="text_30">
     <!-- Решение -->
     <g transform="translate(912.932812 585.739171)scale(0.1 -0.1)">
      <use xlink:href="#DejaVuSans-420"/>
      <use xlink:href="#DejaVuSans-435" x="60.302734"/>
      <use xlink:href="#DejaVuSans-448" x="121.826172"/>
      <use xlink:href="#DejaVuSans-435" x="213.330078"/>
      <use xlink:href="#DejaVuSans-43d" x="274.853516"/>
      <use xlink:href="#DejaVuSans-438" x="340.234375"/>
      <use xlink:href="#DejaVuSans-435" x="405.224609"/>
     </g>
    </g>
   </g>
  </g>
  <g id="axes_3">
   <g id="patch_14">
    <path d="M 135 1190.817391 
L 972 1190.817391 
L 972 901.565217 
L 135 901.565217 
z
" style="fill: #ffffff"/>
   </g>
   <g id="matplotlib.axis_5">
    <g id="xtick_13">
     <g id="line2d_35">
      <g>
       <use xlink:href="#mbb617c7f46" x="173.045455" y="1190.817391" style="stroke: #000000; stroke-width: 0.8"/>
      </g>
     </g>
     <g id="text_31">
      <!-- 0.0 -->
      <g transform="translate(165.093892 1205.415829)scale(0.1 -0.1)">
       <use xlink:href="#DejaVuSans-30"/>
       <use xlink:href="#DejaVuSans-2e" x="63.623047"/>
       <use xlink:href="#DejaVuSans-30" x="95.410156"/>
      </g>
     </g>
    </g>
    <g id="xtick_14">
     <g id="line2d_36">
      <g>
       <use xlink:href="#mbb617c7f46" x="325.227273" y="1190.817391" style="stroke: #000000; stroke-width: 0.8"/>
      </g>
     </g>
     <g id="text_32">
      <!-- 0.2 -->
      <g transform="translate(317.27571 1205.415829)scale(0.1 -0.1)">
       <use xlink:href="#DejaVuSans-30"/>
       <use xlink:href="#DejaVuSans-2e" x="63.623047"/>
       <use xlink:href="#DejaVuSans-32" x="95.410156"/>
      </g>
     </g>
    </g>
    <g id="xtick_15">
     <g id="line2d_37">
      <g>
       <use xlink:href="#mbb617c7f46" x="477.409091" y="1190.817391" style="stroke: #000000; stroke-width: 0.8"/>
      </g>
     </g>
     <g id="text_33">
      <!-- 0.4 -->
      <g transform="translate(469.457528 1205.415829)scale(0.1 -0.1)">
       <use xlink:href="#DejaVuSans-30"/>
       <use xlink:href="#DejaVuSans-2e" x="63.623047"/>
       <use xlink:href="#DejaVuSans-34" x="95.410156"/>
      </g>
     </g>
    </g>
    <g id="xtick_16">
     <g id="line2d_38">
      <g>
       <use xlink:href="#mbb617c7f46" x="629.590909" y="1190.817391" style="stroke: #000000; stroke-width: 0.8"/>
      </g>
     </g>
     <g id="text_34">
      <!-- 0.6 -->
      <g transform="translate(621.639347 1205.415829)scale(0.1 -0.1)">
       <use xlink:href="#DejaVuSans-30"/>
       <use xlink:href="#DejaVuSans-2e" x="63.623047"/>
       <use xlink:href="#DejaVuSans-36" x="95.410156"/>
      </g>
     </g>
    </g>
    <g id="xtick_17">
     <g id="line2d_39">
      <g>
       <use xlink:href="#mbb617c7f46" x="781.772727" y="1190.817391" style="stroke: #000000; stroke-width: 0.8"/>
      </g>
     </g>
     <g id="text_35">
      <!-- 0.8 -->
      <g transform="translate(773.821165 1205.415829)scale(0.1 -0.1)">
       <use xlink:href="#DejaVuSans-30"/>
       <use xlink:href="#DejaVuSans-2e" x="63.623047"/>
       <use xlink:href="#DejaVuSans-38" x="95.410156"/>
      </g>
     </g>
    </g>
    <g id="xtick_18">
     <g id="line2d_40">
      <g>
       <use xlink:href="#mbb617c7f46" x="933.954545" y="1190.817391" style="stroke: #000000; stroke-width: 0.8"/>
      </g>
     </g>
     <g id="text_36">
      <!-- 1.0 -->
      <g transform="translate(926.002983 1205.415829)scale(0.1 -0.1)">
       <use xlink:href="#DejaVuSans-31"/>
       <use xlink:href="#DejaVuSans-2e" x="63.623047"/>
       <use xlink:href="#DejaVuSans-30" x="95.410156"/>
      </g>
     </g>
    </g>
   </g>
   <g id="matplotlib.axis_6">
    <g id="ytick_15">
     <g id="line2d_41">
      <g>
       <use xlink:href="#m26dcdc3e9f" x="135" y="1177.843068" style="stroke: #000000; stroke-width: 0.8"/>
      </g>
     </g>
     <g id="text_37">
      <!-- 0.0 -->
      <g transform="translate(112.096875 1181.642287)scale(0.1 -0.1)">
       <use xlink:href="#DejaVuSans-30"/>
       <use xlink:href="#DejaVuSans-2e" x="63.623047"/>
       <use xlink:href="#DejaVuSans-30" x="95.410156"/>
      </g>
     </g>
    </g>
    <g id="ytick_16">
     <g id="line2d_42">
      <g>
       <use xlink:href="#m26dcdc3e9f" x="135" y="1136.631059" style="stroke: #000000; stroke-width: 0.8"/>
      </g>
     </g>
     <g id="text_38">
      <!-- 0.1 -->
      <g transform="translate(112.096875 1140.430277)scale(0.1 -0.1)">
       <use xlink:href="#DejaVuSans-30"/>
       <use xlink:href="#DejaVuSans-2e" x="63.623047"/>
       <use xlink:href="#DejaVuSans-31" x="95.410156"/>
      </g>
     </g>
    </g>
    <g id="ytick_17">
     <g id="line2d_43">
      <g>
       <use xlink:href="#m26dcdc3e9f" x="135" y="1095.419049" style="stroke: #000000; stroke-width: 0.8"/>
      </g>
     </g>
     <g id="text_39">
      <!-- 0.2 -->
      <g transform="translate(112.096875 1099.218268)scale(0.1 -0.1)">
       <use xlink:href="#DejaVuSans-30"/>
       <use xlink:href="#DejaVuSans-2e" x="63.623047"/>
       <use xlink:href="#DejaVuSans-32" x="95.410156"/>
      </g>
     </g>
    </g>
    <g id="ytick_18">
     <g id="line2d_44">
      <g>
       <use xlink:href="#m26dcdc3e9f" x="135" y="1054.20704" style="stroke: #000000; stroke-width: 0.8"/>
      </g>
     </g>
     <g id="text_40">
      <!-- 0.3 -->
      <g transform="translate(112.096875 1058.006259)scale(0.1 -0.1)">
       <use xlink:href="#DejaVuSans-30"/>
       <use xlink:href="#DejaVuSans-2e" x="63.623047"/>
       <use xlink:href="#DejaVuSans-33" x="95.410156"/>
      </g>
     </g>
    </g>
    <g id="ytick_19">
     <g id="line2d_45">
      <g>
       <use xlink:href="#m26dcdc3e9f" x="135" y="1012.995031" style="stroke: #000000; stroke-width: 0.8"/>
      </g>
     </g>
     <g id="text_41">
      <!-- 0.4 -->
      <g transform="translate(112.096875 1016.79425)scale(0.1 -0.1)">
       <use xlink:href="#DejaVuSans-30"/>
       <use xlink:href="#DejaVuSans-2e" x="63.623047"/>
       <use xlink:href="#DejaVuSans-34" x="95.410156"/>
      </g>
     </g>
    </g>
    <g id="ytick_20">
     <g id="line2d_46">
      <g>
       <use xlink:href="#m26dcdc3e9f" x="135" y="971.783022" style="stroke: #000000; stroke-width: 0.8"/>
      </g>
     </g>
     <g id="text_42">
      <!-- 0.5 -->
      <g transform="translate(112.096875 975.58224)scale(0.1 -0.1)">
       <use xlink:href="#DejaVuSans-30"/>
       <use xlink:href="#DejaVuSans-2e" x="63.623047"/>
       <use xlink:href="#DejaVuSans-35" x="95.410156"/>
      </g>
     </g>
    </g>
    <g id="ytick_21">
     <g id="line2d_47">
      <g>
       <use xlink:href="#m26dcdc3e9f" x="135" y="930.571013" style="stroke: #000000; stroke-width: 0.8"/>
      </g>
     </g>
     <g id="text_43">
      <!-- 0.6 -->
      <g transform="translate(112.096875 934.370231)scale(0.1 -0.1)">
       <use xlink:href="#DejaVuSans-30"/>
       <use xlink:href="#DejaVuSans-2e" x="63.623047"/>
       <use xlink:href="#DejaVuSans-36" x="95.410156"/>
      </g>
     </g>
    </g>
   </g>
   <g id="line2d_48">
    <path d="M 173.045455 914.713043 
L 181.054784 1091.466818 
L 189.064874 1175.953497 
L 197.074203 1175.992649 
L 205.083532 1176.030976 
L 213.093622 1176.069303 
L 221.102951 1176.106394 
L 229.11228 1176.14266 
L 237.12237 1176.178103 
L 245.131699 1176.212721 
L 253.141028 1176.246927 
L 261.150357 1176.280721 
L 269.160447 1176.31369 
L 277.169776 1176.345423 
L 285.179105 1176.377157 
L 293.189195 1176.408066 
L 301.198525 1176.43815 
L 309.207854 1176.468235 
L 317.217944 1176.497084 
L 325.227273 1176.52552 
L 333.236602 1176.553544 
L 341.246692 1176.580744 
L 349.256021 1176.607532 
L 357.26535 1176.633907 
L 365.27544 1176.659871 
L 373.284769 1176.68501 
L 381.294098 1176.709738 
L 389.304188 1176.734053 
L 397.313517 1176.757956 
L 405.322846 1176.781446 
L 413.332175 1176.804525 
L 421.342265 1176.826368 
L 429.351595 1176.848622 
L 437.360924 1176.870464 
L 445.371014 1176.891482 
L 453.380343 1176.912501 
L 461.389672 1176.932694 
L 469.399762 1176.952888 
L 477.409091 1176.972258 
L 485.41842 1176.991628 
L 493.42851 1177.010585 
L 501.437839 1177.029131 
L 509.447168 1177.047264 
L 517.457258 1177.064985 
L 525.466587 1177.082706 
L 533.475916 1177.099603 
L 541.486006 1177.1165 
L 549.495335 1177.133397 
L 557.504665 1177.149882 
L 565.513994 1177.165954 
L 573.524084 1177.181203 
L 581.533413 1177.196863 
L 589.542742 1177.2117 
L 597.552832 1177.226948 
L 605.562161 1177.241372 
L 613.57149 1177.255797 
L 621.58158 1177.270221 
L 629.590909 1177.283821 
L 637.600238 1177.297421 
L 645.610328 1177.311021 
L 653.619657 1177.324209 
L 661.628986 1177.336984 
L 669.639076 1177.34976 
L 677.648405 1177.362124 
L 685.657735 1177.374487 
L 693.667825 1177.386439 
L 701.677154 1177.39839 
L 709.686483 1177.410342 
L 717.695812 1177.421881 
L 725.705902 1177.43342 
L 733.715231 1177.444136 
L 741.72456 1177.455263 
L 749.73465 1177.46639 
L 757.743979 1177.477105 
L 765.753308 1177.487408 
L 773.763398 1177.498123 
L 781.772727 1177.508014 
L 789.782056 1177.518317 
L 797.792146 1177.527796 
L 805.801475 1177.537687 
L 813.810805 1177.547578 
L 821.820895 1177.556644 
L 829.830224 1177.566123 
L 837.839553 1177.575602 
L 845.849643 1177.584668 
L 853.858972 1177.593735 
L 861.868301 1177.60239 
L 869.87763 1177.611044 
L 877.88772 1177.619699 
L 885.897049 1177.628353 
L 893.906378 1177.637008 
L 901.916468 1177.644838 
L 909.925797 1177.65308 
L 917.935126 1177.661323 
L 925.945216 1177.669565 
L 933.954545 1166.335026 
" clip-path="url(#pda9d34a12c)" style="fill: none; stroke: #1f77b4; stroke-width: 1.5; stroke-linecap: square"/>
   </g>
   <g id="patch_15">
    <path d="M 135 1190.817391 
L 135 901.565217 
" style="fill: none; stroke: #000000; stroke-width: 0.8; stroke-linejoin: miter; stroke-linecap: square"/>
   </g>
   <g id="patch_16">
    <path d="M 972 1190.817391 
L 972 901.565217 
" style="fill: none; stroke: #000000; stroke-width: 0.8; stroke-linejoin: miter; stroke-linecap: square"/>
   </g>
   <g id="patch_17">
    <path d="M 135 1190.817391 
L 972 1190.817391 
" style="fill: none; stroke: #000000; stroke-width: 0.8; stroke-linejoin: miter; stroke-linecap: square"/>
   </g>
   <g id="patch_18">
    <path d="M 135 901.565217 
L 972 901.565217 
" style="fill: none; stroke: #000000; stroke-width: 0.8; stroke-linejoin: miter; stroke-linecap: square"/>
   </g>
   <g id="legend_3">
    <g id="patch_19">
     <path d="M 873.248438 924.243342 
L 965 924.243342 
Q 967 924.243342 967 922.243342 
L 967 908.565217 
Q 967 906.565217 965 906.565217 
L 873.248438 906.565217 
Q 871.248438 906.565217 871.248438 908.565217 
L 871.248438 922.243342 
Q 871.248438 924.243342 873.248438 924.243342 
z
" style="fill: #ffffff; opacity: 0.8; stroke: #cccccc; stroke-linejoin: miter"/>
    </g>
    <g id="line2d_49">
     <path d="M 875.248438 914.663655 
L 885.248438 914.663655 
L 895.248438 914.663655 
" style="fill: none; stroke: #1f77b4; stroke-width: 1.5; stroke-linecap: square"/>
    </g>
    <g id="text_44">
     <!-- Delta Рунге -->
     <g transform="translate(903.248438 918.163655)scale(0.1 -0.1)">
      <defs>
       <path id="DejaVuSans-44" d="M 1259 4147 
L 1259 519 
L 2022 519 
Q 2988 519 3436 956 
Q 3884 1394 3884 2338 
Q 3884 3275 3436 3711 
Q 2988 4147 2022 4147 
L 1259 4147 
z
M 628 4666 
L 1925 4666 
Q 3281 4666 3915 4102 
Q 4550 3538 4550 2338 
Q 4550 1131 3912 565 
Q 3275 0 1925 0 
L 628 0 
L 628 4666 
z
" transform="scale(0.015625)"/>
       <path id="DejaVuSans-65" d="M 3597 1894 
L 3597 1613 
L 953 1613 
Q 991 1019 1311 708 
Q 1631 397 2203 397 
Q 2534 397 2845 478 
Q 3156 559 3463 722 
L 3463 178 
Q 3153 47 2828 -22 
Q 2503 -91 2169 -91 
Q 1331 -91 842 396 
Q 353 884 353 1716 
Q 353 2575 817 3079 
Q 1281 3584 2069 3584 
Q 2775 3584 3186 3129 
Q 3597 2675 3597 1894 
z
M 3022 2063 
Q 3016 2534 2758 2815 
Q 2500 3097 2075 3097 
Q 1594 3097 1305 2825 
Q 1016 2553 972 2059 
L 3022 2063 
z
" transform="scale(0.015625)"/>
       <path id="DejaVuSans-6c" d="M 603 4863 
L 1178 4863 
L 1178 0 
L 603 0 
L 603 4863 
z
" transform="scale(0.015625)"/>
       <path id="DejaVuSans-74" d="M 1172 4494 
L 1172 3500 
L 2356 3500 
L 2356 3053 
L 1172 3053 
L 1172 1153 
Q 1172 725 1289 603 
Q 1406 481 1766 481 
L 2356 481 
L 2356 0 
L 1766 0 
Q 1100 0 847 248 
Q 594 497 594 1153 
L 594 3053 
L 172 3053 
L 172 3500 
L 594 3500 
L 594 4494 
L 1172 4494 
z
" transform="scale(0.015625)"/>
       <path id="DejaVuSans-61" d="M 2194 1759 
Q 1497 1759 1228 1600 
Q 959 1441 959 1056 
Q 959 750 1161 570 
Q 1363 391 1709 391 
Q 2188 391 2477 730 
Q 2766 1069 2766 1631 
L 2766 1759 
L 2194 1759 
z
M 3341 1997 
L 3341 0 
L 2766 0 
L 2766 531 
Q 2569 213 2275 61 
Q 1981 -91 1556 -91 
Q 1019 -91 701 211 
Q 384 513 384 1019 
Q 384 1609 779 1909 
Q 1175 2209 1959 2209 
L 2766 2209 
L 2766 2266 
Q 2766 2663 2505 2880 
Q 2244 3097 1772 3097 
Q 1472 3097 1187 3025 
Q 903 2953 641 2809 
L 641 3341 
Q 956 3463 1253 3523 
Q 1550 3584 1831 3584 
Q 2591 3584 2966 3190 
Q 3341 2797 3341 1997 
z
" transform="scale(0.015625)"/>
       <path id="DejaVuSans-20" transform="scale(0.015625)"/>
       <path id="DejaVuSans-443" d="M 2059 -325 
Q 1816 -950 1584 -1140 
Q 1353 -1331 966 -1331 
L 506 -1331 
L 506 -850 
L 844 -850 
Q 1081 -850 1212 -737 
Q 1344 -625 1503 -206 
L 1606 56 
L 191 3500 
L 800 3500 
L 1894 763 
L 2988 3500 
L 3597 3500 
L 2059 -325 
z
" transform="scale(0.015625)"/>
      </defs>
      <use xlink:href="#DejaVuSans-44"/>
      <use xlink:href="#DejaVuSans-65" x="77.001953"/>
      <use xlink:href="#DejaVuSans-6c" x="138.525391"/>
      <use xlink:href="#DejaVuSans-74" x="166.308594"/>
      <use xlink:href="#DejaVuSans-61" x="205.517578"/>
      <use xlink:href="#DejaVuSans-20" x="266.796875"/>
      <use xlink:href="#DejaVuSans-420" x="298.583984"/>
      <use xlink:href="#DejaVuSans-443" x="358.886719"/>
      <use xlink:href="#DejaVuSans-43d" x="418.066406"/>
      <use xlink:href="#DejaVuSans-433" x="483.447266"/>
      <use xlink:href="#DejaVuSans-435" x="535.986328"/>
     </g>
    </g>
   </g>
  </g>
  <g id="axes_4">
   <g id="patch_20">
    <path d="M 135 1537.92 
L 972 1537.92 
L 972 1248.667826 
L 135 1248.667826 
z
" style="fill: #ffffff"/>
   </g>
   <g id="matplotlib.axis_7">
    <g id="xtick_19">
     <g id="line2d_50">
      <g>
       <use xlink:href="#mbb617c7f46" x="173.045455" y="1537.92" style="stroke: #000000; stroke-width: 0.8"/>
      </g>
     </g>
     <g id="text_45">
      <!-- 0.0 -->
      <g transform="translate(165.093892 1552.518437)scale(0.1 -0.1)">
       <use xlink:href="#DejaVuSans-30"/>
       <use xlink:href="#DejaVuSans-2e" x="63.623047"/>
       <use xlink:href="#DejaVuSans-30" x="95.410156"/>
      </g>
     </g>
    </g>
    <g id="xtick_20">
     <g id="line2d_51">
      <g>
       <use xlink:href="#mbb617c7f46" x="325.227273" y="1537.92" style="stroke: #000000; stroke-width: 0.8"/>
      </g>
     </g>
     <g id="text_46">
      <!-- 0.2 -->
      <g transform="translate(317.27571 1552.518437)scale(0.1 -0.1)">
       <use xlink:href="#DejaVuSans-30"/>
       <use xlink:href="#DejaVuSans-2e" x="63.623047"/>
       <use xlink:href="#DejaVuSans-32" x="95.410156"/>
      </g>
     </g>
    </g>
    <g id="xtick_21">
     <g id="line2d_52">
      <g>
       <use xlink:href="#mbb617c7f46" x="477.409091" y="1537.92" style="stroke: #000000; stroke-width: 0.8"/>
      </g>
     </g>
     <g id="text_47">
      <!-- 0.4 -->
      <g transform="translate(469.457528 1552.518437)scale(0.1 -0.1)">
       <use xlink:href="#DejaVuSans-30"/>
       <use xlink:href="#DejaVuSans-2e" x="63.623047"/>
       <use xlink:href="#DejaVuSans-34" x="95.410156"/>
      </g>
     </g>
    </g>
    <g id="xtick_22">
     <g id="line2d_53">
      <g>
       <use xlink:href="#mbb617c7f46" x="629.590909" y="1537.92" style="stroke: #000000; stroke-width: 0.8"/>
      </g>
     </g>
     <g id="text_48">
      <!-- 0.6 -->
      <g transform="translate(621.639347 1552.518437)scale(0.1 -0.1)">
       <use xlink:href="#DejaVuSans-30"/>
       <use xlink:href="#DejaVuSans-2e" x="63.623047"/>
       <use xlink:href="#DejaVuSans-36" x="95.410156"/>
      </g>
     </g>
    </g>
    <g id="xtick_23">
     <g id="line2d_54">
      <g>
       <use xlink:href="#mbb617c7f46" x="781.772727" y="1537.92" style="stroke: #000000; stroke-width: 0.8"/>
      </g>
     </g>
     <g id="text_49">
      <!-- 0.8 -->
      <g transform="translate(773.821165 1552.518437)scale(0.1 -0.1)">
       <use xlink:href="#DejaVuSans-30"/>
       <use xlink:href="#DejaVuSans-2e" x="63.623047"/>
       <use xlink:href="#DejaVuSans-38" x="95.410156"/>
      </g>
     </g>
    </g>
    <g id="xtick_24">
     <g id="line2d_55">
      <g>
       <use xlink:href="#mbb617c7f46" x="933.954545" y="1537.92" style="stroke: #000000; stroke-width: 0.8"/>
      </g>
     </g>
     <g id="text_50">
      <!-- 1.0 -->
      <g transform="translate(926.002983 1552.518437)scale(0.1 -0.1)">
       <use xlink:href="#DejaVuSans-31"/>
       <use xlink:href="#DejaVuSans-2e" x="63.623047"/>
       <use xlink:href="#DejaVuSans-30" x="95.410156"/>
      </g>
     </g>
    </g>
   </g>
   <g id="matplotlib.axis_8">
    <g id="ytick_22">
     <g id="line2d_56">
      <g>
       <use xlink:href="#m26dcdc3e9f" x="135" y="1525.599983" style="stroke: #000000; stroke-width: 0.8"/>
      </g>
     </g>
     <g id="text_51">
      <!-- 0.125 -->
      <g transform="translate(99.371875 1529.399202)scale(0.1 -0.1)">
       <use xlink:href="#DejaVuSans-30"/>
       <use xlink:href="#DejaVuSans-2e" x="63.623047"/>
       <use xlink:href="#DejaVuSans-31" x="95.410156"/>
       <use xlink:href="#DejaVuSans-32" x="159.033203"/>
       <use xlink:href="#DejaVuSans-35" x="222.65625"/>
      </g>
     </g>
    </g>
    <g id="ytick_23">
     <g id="line2d_57">
      <g>
       <use xlink:href="#m26dcdc3e9f" x="135" y="1490.463781" style="stroke: #000000; stroke-width: 0.8"/>
      </g>
     </g>
     <g id="text_52">
      <!-- 0.150 -->
      <g transform="translate(99.371875 1494.263)scale(0.1 -0.1)">
       <use xlink:href="#DejaVuSans-30"/>
       <use xlink:href="#DejaVuSans-2e" x="63.623047"/>
       <use xlink:href="#DejaVuSans-31" x="95.410156"/>
       <use xlink:href="#DejaVuSans-35" x="159.033203"/>
       <use xlink:href="#DejaVuSans-30" x="222.65625"/>
      </g>
     </g>
    </g>
    <g id="ytick_24">
     <g id="line2d_58">
      <g>
       <use xlink:href="#m26dcdc3e9f" x="135" y="1455.32758" style="stroke: #000000; stroke-width: 0.8"/>
      </g>
     </g>
     <g id="text_53">
      <!-- 0.175 -->
      <g transform="translate(99.371875 1459.126798)scale(0.1 -0.1)">
       <defs>
        <path id="DejaVuSans-37" d="M 525 4666 
L 3525 4666 
L 3525 4397 
L 1831 0 
L 1172 0 
L 2766 4134 
L 525 4134 
L 525 4666 
z
" transform="scale(0.015625)"/>
       </defs>
       <use xlink:href="#DejaVuSans-30"/>
       <use xlink:href="#DejaVuSans-2e" x="63.623047"/>
       <use xlink:href="#DejaVuSans-31" x="95.410156"/>
       <use xlink:href="#DejaVuSans-37" x="159.033203"/>
       <use xlink:href="#DejaVuSans-35" x="222.65625"/>
      </g>
     </g>
    </g>
    <g id="ytick_25">
     <g id="line2d_59">
      <g>
       <use xlink:href="#m26dcdc3e9f" x="135" y="1420.191378" style="stroke: #000000; stroke-width: 0.8"/>
      </g>
     </g>
     <g id="text_54">
      <!-- 0.200 -->
      <g transform="translate(99.371875 1423.990597)scale(0.1 -0.1)">
       <use xlink:href="#DejaVuSans-30"/>
       <use xlink:href="#DejaVuSans-2e" x="63.623047"/>
       <use xlink:href="#DejaVuSans-32" x="95.410156"/>
       <use xlink:href="#DejaVuSans-30" x="159.033203"/>
       <use xlink:href="#DejaVuSans-30" x="222.65625"/>
      </g>
     </g>
    </g>
    <g id="ytick_26">
     <g id="line2d_60">
      <g>
       <use xlink:href="#m26dcdc3e9f" x="135" y="1385.055176" style="stroke: #000000; stroke-width: 0.8"/>
      </g>
     </g>
     <g id="text_55">
      <!-- 0.225 -->
      <g transform="translate(99.371875 1388.854395)scale(0.1 -0.1)">
       <use xlink:href="#DejaVuSans-30"/>
       <use xlink:href="#DejaVuSans-2e" x="63.623047"/>
       <use xlink:href="#DejaVuSans-32" x="95.410156"/>
       <use xlink:href="#DejaVuSans-32" x="159.033203"/>
       <use xlink:href="#DejaVuSans-35" x="222.65625"/>
      </g>
     </g>
    </g>
    <g id="ytick_27">
     <g id="line2d_61">
      <g>
       <use xlink:href="#m26dcdc3e9f" x="135" y="1349.918975" style="stroke: #000000; stroke-width: 0.8"/>
      </g>
     </g>
     <g id="text_56">
      <!-- 0.250 -->
      <g transform="translate(99.371875 1353.718194)scale(0.1 -0.1)">
       <use xlink:href="#DejaVuSans-30"/>
       <use xlink:href="#DejaVuSans-2e" x="63.623047"/>
       <use xlink:href="#DejaVuSans-32" x="95.410156"/>
       <use xlink:href="#DejaVuSans-35" x="159.033203"/>
       <use xlink:href="#DejaVuSans-30" x="222.65625"/>
      </g>
     </g>
    </g>
    <g id="ytick_28">
     <g id="line2d_62">
      <g>
       <use xlink:href="#m26dcdc3e9f" x="135" y="1314.782773" style="stroke: #000000; stroke-width: 0.8"/>
      </g>
     </g>
     <g id="text_57">
      <!-- 0.275 -->
      <g transform="translate(99.371875 1318.581992)scale(0.1 -0.1)">
       <use xlink:href="#DejaVuSans-30"/>
       <use xlink:href="#DejaVuSans-2e" x="63.623047"/>
       <use xlink:href="#DejaVuSans-32" x="95.410156"/>
       <use xlink:href="#DejaVuSans-37" x="159.033203"/>
       <use xlink:href="#DejaVuSans-35" x="222.65625"/>
      </g>
     </g>
    </g>
    <g id="ytick_29">
     <g id="line2d_63">
      <g>
       <use xlink:href="#m26dcdc3e9f" x="135" y="1279.646572" style="stroke: #000000; stroke-width: 0.8"/>
      </g>
     </g>
     <g id="text_58">
      <!-- 0.300 -->
      <g transform="translate(99.371875 1283.445791)scale(0.1 -0.1)">
       <use xlink:href="#DejaVuSans-30"/>
       <use xlink:href="#DejaVuSans-2e" x="63.623047"/>
       <use xlink:href="#DejaVuSans-33" x="95.410156"/>
       <use xlink:href="#DejaVuSans-30" x="159.033203"/>
       <use xlink:href="#DejaVuSans-30" x="222.65625"/>
      </g>
     </g>
    </g>
   </g>
   <g id="line2d_64">
    <path d="M 173.045455 1261.815652 
L 181.054784 1268.158439 
L 189.064874 1274.367709 
L 197.074203 1280.447677 
L 205.083532 1286.401155 
L 213.093622 1292.229548 
L 221.102951 1297.938478 
L 229.11228 1303.52654 
L 237.12237 1308.999355 
L 245.131699 1314.355517 
L 253.141028 1319.602055 
L 261.150357 1324.737562 
L 269.160447 1329.767661 
L 277.169776 1334.692351 
L 285.179105 1339.514443 
L 293.189195 1344.235343 
L 301.198525 1348.857862 
L 309.207854 1353.383404 
L 317.217944 1357.814782 
L 325.227273 1362.154806 
L 333.236602 1366.40207 
L 341.246692 1370.562196 
L 349.256021 1374.635185 
L 357.26535 1378.623846 
L 365.27544 1382.528181 
L 373.284769 1386.351 
L 381.294098 1390.096519 
L 389.304188 1393.761927 
L 397.313517 1397.350036 
L 405.322846 1400.865062 
L 413.332175 1404.305599 
L 421.342265 1407.674458 
L 429.351595 1410.97445 
L 437.360924 1414.202764 
L 445.371014 1417.366427 
L 453.380343 1420.46263 
L 461.389672 1423.494181 
L 469.399762 1426.463893 
L 477.409091 1429.370359 
L 485.41842 1432.216392 
L 493.42851 1435.003395 
L 501.437839 1437.73137 
L 509.447168 1440.403127 
L 517.457258 1443.020071 
L 525.466587 1445.580797 
L 533.475916 1448.088117 
L 541.486006 1450.543434 
L 549.495335 1452.948156 
L 557.504665 1455.302282 
L 565.513994 1457.607216 
L 573.524084 1459.864366 
L 581.533413 1462.07373 
L 589.542742 1464.23812 
L 597.552832 1466.357536 
L 605.562161 1468.431977 
L 613.57149 1470.46285 
L 621.58158 1472.451559 
L 629.590909 1474.39951 
L 637.600238 1476.306703 
L 645.610328 1478.171732 
L 653.619657 1480.00022 
L 661.628986 1481.790761 
L 669.639076 1483.54195 
L 677.648405 1485.259407 
L 685.657735 1486.940323 
L 693.667825 1488.584697 
L 701.677154 1490.195341 
L 709.686483 1491.772253 
L 717.695812 1493.316841 
L 725.705902 1494.827697 
L 733.715231 1496.30904 
L 741.72456 1497.758057 
L 749.73465 1499.178965 
L 757.743979 1500.567547 
L 765.753308 1501.928021 
L 773.763398 1503.260386 
L 781.772727 1504.566047 
L 789.782056 1505.842194 
L 797.792146 1507.093043 
L 805.801475 1508.317188 
L 813.810805 1509.517441 
L 821.820895 1510.689584 
L 829.830224 1511.840646 
L 837.839553 1512.965005 
L 845.849643 1514.068281 
L 853.858972 1515.14626 
L 861.868301 1516.203157 
L 869.87763 1517.238972 
L 877.88772 1518.250895 
L 885.897049 1519.241736 
L 893.906378 1520.2129 
L 901.916468 1521.164389 
L 909.925797 1522.094795 
L 917.935126 1523.006931 
L 925.945216 1523.899391 
L 933.954545 1524.772174 
" clip-path="url(#pd7c8184eeb)" style="fill: none; stroke: #1f77b4; stroke-width: 1.5; stroke-linecap: square"/>
   </g>
   <g id="patch_21">
    <path d="M 135 1537.92 
L 135 1248.667826 
" style="fill: none; stroke: #000000; stroke-width: 0.8; stroke-linejoin: miter; stroke-linecap: square"/>
   </g>
   <g id="patch_22">
    <path d="M 972 1537.92 
L 972 1248.667826 
" style="fill: none; stroke: #000000; stroke-width: 0.8; stroke-linejoin: miter; stroke-linecap: square"/>
   </g>
   <g id="patch_23">
    <path d="M 135 1537.92 
L 972 1537.92 
" style="fill: none; stroke: #000000; stroke-width: 0.8; stroke-linejoin: miter; stroke-linecap: square"/>
   </g>
   <g id="patch_24">
    <path d="M 135 1248.667826 
L 972 1248.667826 
" style="fill: none; stroke: #000000; stroke-width: 0.8; stroke-linejoin: miter; stroke-linecap: square"/>
   </g>
  </g>
 </g>
 <defs>
  <clipPath id="p8c35534017">
   <rect x="135" y="207.36" width="837" height="289.252174"/>
  </clipPath>
  <clipPath id="p791c44bc55">
   <rect x="135" y="554.462609" width="837" height="289.252174"/>
  </clipPath>
  <clipPath id="pda9d34a12c">
   <rect x="135" y="901.565217" width="837" height="289.252174"/>
  </clipPath>
  <clipPath id="pd7c8184eeb">
   <rect x="135" y="1248.667826" width="837" height="289.252174"/>
  </clipPath>
 </defs>
</svg>
